<?xml version="1.0" encoding="UTF-8"?>
<svg version="1.1" xmlns="http://www.w3.org/2000/svg" width="26" height="26">
<path d="M0 0 C8.58 0 17.16 0 26 0 C26 8.58 26 17.16 26 26 C17.42 26 8.84 26 0 26 C0 17.42 0 8.84 0 0 Z " fill="#BDBDBD" transform="translate(0,0)"/>
<path d="M0 0 C8.58 0 17.16 0 26 0 C26 8.58 26 17.16 26 26 C17.42 26 8.84 26 0 26 C0 17.42 0 8.84 0 0 Z M1 1 C1 8.92 1 16.84 1 25 C1.66 24.67 2.32 24.34 3 24 C4.5195764 23.84876169 6.04472502 23.75118307 7.5703125 23.68359375 C8.78098389 23.62643188 8.78098389 23.62643188 10.01611328 23.56811523 C11.0420459 23.52501221 12.06797852 23.48190918 13.125 23.4375 C16.38375 23.293125 19.6425 23.14875 23 23 C23.33 15.74 23.66 8.48 24 1 C16.41 1 8.82 1 1 1 Z " fill="#7C7C7C" transform="translate(0,0)"/>
<path d="M0 0 C7.59 0 15.18 0 23 0 C23 0.66 23 1.32 23 2 C16.07 2 9.14 2 2 2 C2 8.93 2 15.86 2 23 C1.34 23.33 0.68 23.66 0 24 C0 16.08 0 8.16 0 0 Z " fill="#FCFCFC" transform="translate(1,1)"/>
<path d="M0 0 C0 2.64 0 5.28 0 8 C0.66 8 1.32 8 2 8 C2 8.66 2 9.32 2 10 C-0.31 10 -2.62 10 -5 10 C-5 9.34 -5 8.68 -5 8 C-4.34 8 -3.68 8 -3 8 C-3 6.68 -3 5.36 -3 4 C-3.66 3.67 -4.32 3.34 -5 3 C-2.25 0 -2.25 0 0 0 Z " fill="#0000FF" transform="translate(10,4)"/>
<path d="M0 0 C0.12375 1.134375 0.2475 2.26875 0.375 3.4375 C0.684375 5.2009375 0.684375 5.2009375 1 7 C1.66 7.33 2.32 7.66 3 8 C3 8.66 3 9.32 3 10 C0.36 10 -2.28 10 -5 10 C-5 9.34 -5 8.68 -5 8 C-3.68 7.67 -2.36 7.34 -1 7 C-2.32 5.35 -3.64 3.7 -5 2 C-2 0 -2 0 0 0 Z " fill="#000000" transform="translate(19,12)"/>
<path d="M0 0 C0 1.65 0 3.3 0 5 C-2.475 4.01 -2.475 4.01 -5 3 C-2.25 0 -2.25 0 0 0 Z " fill="#FF0000" transform="translate(19,12)"/>
</svg>
